<svg width="24" height="24" viewBox="0 0 24 24" fill="none" xmlns="http://www.w3.org/2000/svg">
<g clip-path="url(#clip0_15_123)">
<path d="M9.24225 0.846249C9.69358 0.714083 10.1474 0.623334 10.6038 0.574001C11.0603 0.524667 11.5192 0.5 11.9808 0.5C13.4769 0.5 14.892 0.766334 16.226 1.299C17.56 1.83167 18.7437 2.56983 19.777 3.5135C20.8103 4.457 21.6558 5.56917 22.3135 6.85C22.9712 8.13083 23.3667 9.51417 23.5 11H22C21.877 9.768 21.5459 8.61992 21.0068 7.55575C20.4676 6.49158 19.7763 5.56208 18.9328 4.76725C18.0891 3.97242 17.1214 3.333 16.0297 2.849C14.9381 2.365 13.773 2.09225 12.5345 2.03075L14.277 3.773L13.223 4.827L9.24225 0.846249ZM14.7578 23.1538C14.3064 23.2859 13.8526 23.3767 13.3962 23.426C12.9397 23.4753 12.4808 23.5 12.0192 23.5C10.5231 23.5 9.108 23.2337 7.774 22.701C6.44 22.1683 5.25633 21.4302 4.223 20.4865C3.18967 19.543 2.34417 18.4308 1.6865 17.15C1.02883 15.8692 0.633333 14.4858 0.5 13H2C2.13333 14.232 2.467 15.3801 3.001 16.4443C3.535 17.5084 4.22375 18.4379 5.06725 19.2327C5.91092 20.0276 6.87858 20.667 7.97025 21.151C9.06192 21.635 10.227 21.9078 11.4655 21.9693L9.723 20.227L10.777 19.173L14.7578 23.1538Z" fill="black"/>
<rect x="6" y="7" width="12" height="2" fill="black"/>
<rect x="6" y="11" width="12" height="2" fill="black"/>
<path d="M6 15H15V17H6V15Z" fill="black"/>
</g>
<defs>
<clipPath id="clip0_15_123">
<rect width="24" height="24" fill="white"/>
</clipPath>
</defs>
</svg>
