<svg width="24" height="24" viewBox="0 0 24 24" fill="none" xmlns="http://www.w3.org/2000/svg">
<g clip-path="url(#clip0_15_122)">
<path d="M9.24225 0.846249C9.69358 0.714083 10.1474 0.623334 10.6038 0.574001C11.0603 0.524667 11.5192 0.5 11.9808 0.5C13.4769 0.5 14.892 0.766334 16.226 1.299C17.56 1.83167 18.7437 2.56983 19.777 3.5135C20.8103 4.457 21.6558 5.56917 22.3135 6.85C22.9712 8.13083 23.3667 9.51417 23.5 11H22C21.877 9.768 21.5459 8.61992 21.0068 7.55575C20.4676 6.49158 19.7763 5.56208 18.9328 4.76725C18.0891 3.97242 17.1214 3.333 16.0297 2.849C14.9381 2.365 13.773 2.09225 12.5345 2.03075L14.277 3.773L13.223 4.827L9.24225 0.846249ZM14.7578 23.1538C14.3064 23.2859 13.8526 23.3767 13.3962 23.426C12.9397 23.4753 12.4808 23.5 12.0192 23.5C10.5231 23.5 9.108 23.2337 7.774 22.701C6.44 22.1683 5.25633 21.4302 4.223 20.4865C3.18967 19.543 2.34417 18.4308 1.6865 17.15C1.02883 15.8692 0.633333 14.4858 0.5 13H2C2.13333 14.232 2.467 15.3801 3.001 16.4443C3.535 17.5084 4.22375 18.4379 5.06725 19.2327C5.91092 20.0276 6.87858 20.667 7.97025 21.151C9.06192 21.635 10.227 21.9078 11.4655 21.9693L9.723 20.227L10.777 19.173L14.7578 23.1538Z" fill="black"/>
<path d="M17.7326 21C16.4198 21 15.3029 20.5372 14.3817 19.6117C13.4606 18.6862 13 17.5639 13 16.2449C13 14.926 13.4606 13.8017 14.3817 12.872C15.3029 11.9423 16.4198 11.4774 17.7326 11.4774C19.0453 11.4774 20.1643 11.9423 21.0896 12.872C22.0148 13.8017 22.4774 14.926 22.4774 16.2449C22.4774 17.5639 22.0148 18.6862 21.0896 19.6117C20.1643 20.5372 19.0453 21 17.7326 21ZM17.7345 19.7396C18.6335 19.7396 19.4107 19.4412 20.0661 18.8444C20.7216 18.2476 21.0985 17.5061 21.1969 16.6198C21.1164 16.6522 21.04 16.6807 20.9676 16.7052C20.8953 16.7295 20.8154 16.7416 20.7277 16.7416H19.7313C19.449 16.7416 19.2124 16.6438 19.0215 16.4481C18.8306 16.2522 18.7351 16.0138 18.7351 15.7328V15.2366H16.7425V14.2447C16.7425 13.9635 16.8374 13.7251 17.0273 13.5294C17.2174 13.3335 17.4528 13.2356 17.7337 13.2356H18.2394C18.2394 13.1475 18.2465 13.0673 18.2607 12.9949C18.2749 12.9223 18.2995 12.8531 18.3346 12.7872C18.2331 12.7706 18.1325 12.7582 18.0327 12.7499C17.9331 12.7418 17.8335 12.7378 17.7339 12.7378C16.7709 12.7378 15.9502 13.0801 15.2719 13.7646C14.5934 14.4491 14.2542 15.2755 14.2542 16.2438H16.2507C16.7997 16.2438 17.2684 16.4373 17.6569 16.8241C18.0452 17.2109 18.2394 17.6823 18.2394 18.2382V18.7437H16.7425V19.5914C16.9043 19.6373 17.0643 19.6735 17.2224 19.6999C17.3806 19.7264 17.5513 19.7396 17.7345 19.7396Z" fill="black"/>
<path d="M12.085 15C12.0304 15.3253 12 15.6592 12 16C12 16.3408 12.0304 16.6747 12.085 17H6V15H12.085Z" fill="black"/>
<path d="M14.6836 11C13.9133 11.5119 13.2692 12.1973 12.8047 13H6V11H14.6836Z" fill="black"/>
<path d="M18 9H6V7H18V9Z" fill="black"/>
</g>
<defs>
<clipPath id="clip0_15_122">
<rect width="24" height="24" fill="white"/>
</clipPath>
</defs>
</svg>
